<?xml version="1.0" encoding="utf-8"?>
<!-- Generator: Adobe Illustrator 14.0.0, SVG Export Plug-In . SVG Version: 6.00 Build 43363)  -->
<!DOCTYPE svg PUBLIC "-//W3C//DTD SVG 1.1//EN" "http://www.w3.org/Graphics/SVG/1.1/DTD/svg11.dtd">
<svg version="1.1"
	 id="svg2054" inkscape:export-filename="/Users/pipo/Desktop/tasse.png" xmlns:sodipodi="http://sodipodi.sourceforge.net/DTD/sodipodi-0.dtd" sodipodi:docname="tasse petite.svg" xmlns:svg="http://www.w3.org/2000/svg" sodipodi:version="0.32" xmlns:dc="http://purl.org/dc/elements/1.1/" inkscape:version="0.44" inkscape:export-xdpi="90" inkscape:export-ydpi="90" xmlns:inkscape="http://www.inkscape.org/namespaces/inkscape" sodipodi:docbase="/Users/pipo/Desktop" xmlns:rdf="http://www.w3.org/1999/02/22-rdf-syntax-ns#" xmlns:cc="http://web.resource.org/cc/"
	 xmlns="http://www.w3.org/2000/svg" xmlns:xlink="http://www.w3.org/1999/xlink" x="0px" y="0px" width="215.467px"
	 height="231.643px" viewBox="0 0 215.467 231.643" enable-background="new 0 0 215.467 231.643" xml:space="preserve">
<sodipodi:namedview  id="base" width="216.47px" inkscape:pageopacity="0.0" inkscape:pageshadow="2" pagecolor="#ffffff" bordercolor="#666666" borderopacity="1.0" gridtolerance="10000" guidetolerance="10" objecttolerance="10" inkscape:zoom="2.5600001" inkscape:cx="277.04038" inkscape:document-units="px" inkscape:current-layer="layer1" inkscape:window-width="1440" inkscape:window-height="852" inkscape:window-x="29" inkscape:window-y="22" inkscape:cy="109.36552">
	</sodipodi:namedview>
<g>
	
		<path id="path3116" sodipodi:type="arc" sodipodi:cx="34.285713" sodipodi:cy="193.07646" sodipodi:rx="11.428572" sodipodi:ry="12.142858" sodipodi:start="0" sodipodi:end="6.2801146" fill="#999999" d="
		M162.416,181.715c0.002,14.309-17.972,25.909-40.146,25.91c-22.173,0.002-40.15-11.598-40.152-25.905s17.972-25.909,40.145-25.911
		c22.127-0.001,40.084,11.549,40.152,25.826l-40.148,0.08H162.416L162.416,181.715z"/>
	<g id="g2813" transform="matrix(0.210418,0,0,0.210418,87.78764,47.56252)">
		<g id="g2836">
			<path id="path2790" sodipodi:nodetypes="csccssccccsc" fill="#CCCCCC" d="M162.43-15.811
				c-190.838,0-345.72,79.761-345.72,178.059c0,14.229,3.277,28.078,9.407,41.347l131.969,420.406
				C-27.545,694.8,58.171,749.249,161.678,749.249c31.383,0,61.132-5.003,87.744-13.951
				c61.104-20.541,105.733-61.861,115.822-111.112h0.186l137.125-426.096h-1.411c4.604-11.575,7.003-23.567,7.003-35.843
				C508.142,63.955,353.261-15.811,162.43-15.811z"/>
			<path id="path2808" sodipodi:nodetypes="ccc" fill="#CCCCCC" stroke="#DADADA" stroke-width="2.5392" d="M500.856,199.381
				l3.054-12.642l2.423-14.536"/>
		</g>
	</g>
	
		<path id="path2760" sodipodi:sides="3" sodipodi:r1="364.45938" sodipodi:r2="372.15213" sodipodi:arg1="2.0619237" sodipodi:arg2="0.0005425717" inkscape:flatsided="false" inkscape:rounded="0.45913031" inkscape:randomized="0" sodipodi:type="star" sodipodi:cx="-1262.8571" sodipodi:cy="-176.20924" fill="#FFFFFF" d="
		M90.171,110.128c47.021,13.32,103.616-2.869,101.859-29.477c-1.79-27.117-57.747-41.982-105.696-28.427
		c-47.045,13.3-46.739,45.419,1.147,57.978c48.808,12.8,103.05-3.521,103.073-30.654c0.022-26.62-56.878-42.55-103.008-28.501
		C40.53,65.366,42.245,96.552,90.171,110.128z"/>
	
		<linearGradient id="rect3076_1_" gradientUnits="userSpaceOnUse" x1="2486.126" y1="2362.22" x2="2690.4084" y2="2362.22" gradientTransform="matrix(0.2104 0 0 0.2104 -471.5857 -350.6397)">
		<stop  offset="0" style="stop-color:#999999"/>
		<stop  offset="1" style="stop-color:#999999;stop-opacity:0"/>
	</linearGradient>
	<path id="rect3076" sodipodi:nodetypes="ccccscc" fill="url(#rect3076_1_)" d="M51.495,90.761c0,0,5.575,10.446,18.637,18.337
		c21.85,8.954,23.446,7.815,23.446,7.815l9.92,85.068c0,0-7.923-2.946-13.635-6.93c-5.711-3.983-9.812-12.309-9.812-12.309
		L51.495,90.761z"/>
	
		<radialGradient id="rect3168_1_" cx="983.9277" cy="-3080.1917" r="150.7134" fx="981.0705" fy="-3209.0398" gradientTransform="matrix(0.3328 -5.784441e-04 -0.0016 -0.363 -207.8711 -970.2573)" gradientUnits="userSpaceOnUse">
		<stop  offset="0" style="stop-color:#FFFFFF"/>
		<stop  offset="1" style="stop-color:#FFFFFF;stop-opacity:0"/>
	</radialGradient>
	<path id="rect3168" sodipodi:nodetypes="ccccccc" fill="url(#rect3168_1_)" d="M79.522,193.265l42.79,10.655l50.4-11.257
		l1.428-74.85c0,0-34.386,2.98-53.879,3.112c-20.921,0-45.019-3.713-45.019-3.713L79.522,193.265z"/>
	
		<radialGradient id="path3181_1_" cx="-3028.9268" cy="-9675.7363" r="127.1422" fx="-3046.991" fy="-9801.5889" gradientTransform="matrix(-0.2623 0.008 -0.0072 -0.0498 -739.1029 -342.6844)" gradientUnits="userSpaceOnUse">
		<stop  offset="0" style="stop-color:#FFFFFF"/>
		<stop  offset="1" style="stop-color:#FFFFFF;stop-opacity:0"/>
	</radialGradient>
	<path id="path3181" sodipodi:nodetypes="csscs" fill="url(#path3181_1_)" d="M118.528,131.643
		c-14.769,0-26.753-8.483-26.753-18.938c0-10.453,12.427-22.52,26.753-18.938l51.703,12.926
		C152.37,115.422,141.524,128.645,118.528,131.643z"/>
	
		<linearGradient id="path2819_1_" gradientUnits="userSpaceOnUse" x1="3070.2383" y1="2027.9875" x2="2781.4968" y2="2012.3051" gradientTransform="matrix(0.2104 0 0 0.2104 -460.4637 -333.5049)">
		<stop  offset="0" style="stop-color:#999999"/>
		<stop  offset="1" style="stop-color:#999999;stop-opacity:0"/>
	</linearGradient>
	<path id="path2819" sodipodi:nodetypes="ccscc" fill="url(#path2819_1_)" d="M155.179,68.803
		c-30.688-2.404-92.867,5.362-94.862,19.769c5.543,11.486,33.2,23.835,62.862,23.835c30.09,0,65.141-16.234,62.588-27.64
		C185.622,87.949,185.144,72.11,155.179,68.803z"/>
	
		<path id="path3231" sodipodi:type="arc" sodipodi:cx="-257.14285" sodipodi:cy="-2513.3521" sodipodi:rx="64.285713" sodipodi:ry="45.714287" sodipodi:start="0" sodipodi:end="6.2801146" fill="#FFFFFF" d="
		M141.674,116.312c0,1.162-6.864,2.104-15.331,2.104s-15.33-0.942-15.328-2.104c0-1.162,6.863-2.104,15.33-2.104
		c8.448,0,15.305,0.938,15.329,2.098l-15.33,0.007L141.674,116.312L141.674,116.312z"/>
	
		<path id="rect3233" sodipodi:nodetypes="ccccc" fill="#FFFFFF" stroke="#FFFFFF" stroke-width="2.9458" stroke-dasharray="0.2946,0.2946" d="
		M116.466,124.797h20.605L128.34,194.1l-9.271-3.001L116.466,124.797z"/>
	
		<path id="path3244" sodipodi:type="arc" sodipodi:cx="-257.14285" sodipodi:cy="-2513.3521" sodipodi:rx="64.285713" sodipodi:ry="45.714287" sodipodi:start="0" sodipodi:end="6.2801146" fill="#FFFFFF" d="
		M127.091,47.559c0,0.507-3.701,0.917-8.267,0.917c-4.566,0-8.267-0.411-8.267-0.917c0-0.507,3.701-0.918,8.268-0.917
		c4.556,0,8.252,0.408,8.266,0.914l-8.267,0.003H127.091z"/>
	
		<linearGradient id="path2050_1_" gradientUnits="userSpaceOnUse" x1="-2932.4932" y1="2132.2532" x2="-3046.949" y2="2067.9995" gradientTransform="matrix(-0.2104 0 0 0.2104 -549.3938 -334.708)">
		<stop  offset="0" style="stop-color:#999999"/>
		<stop  offset="1" style="stop-color:#999999;stop-opacity:0"/>
	</linearGradient>
	<path id="path2050" sodipodi:nodetypes="cscscc" fill="url(#path2050_1_)" d="M109.071,50.167
		c26.457,0,61.919,17.625,71.451,31.674c1.31,1.929,2.129,3.79,2.369,5.529c-5.543,11.484-33.199,23.833-62.861,23.833
		c-30.089,0-63.638-17.137-61.084-28.54C62.996,67.208,87.224,64.896,109.071,50.167z"/>
	<g id="g2015" transform="matrix(0.729978,0,0,0.729978,9.950581,-110.6643)">
		<path id="path2012" sodipodi:nodetypes="ccscc" fill="#BE8124" d="M155.358,256.192c-33.143,0-55.794,10.194-73.96,26.297
			c10.427,11.766,39.845-11.905,73.006-11.905c34.444,0,67.298,23.561,76.673,11.082
			C210.537,263.191,189.844,256.192,155.358,256.192z"/>
		<path id="path1965" sodipodi:nodetypes="ccscc" fill="#28170B" d="M154.66,259.634c-32.242,0-53.897,10.618-70.408,25.603
			c14.562,10.614,36.605,17.608,68.864,17.608c33.504,0,59.754-6.809,75.23-19.224C209.448,266.337,185.603,259.634,154.66,259.634z
			"/>
	</g>
	
		<radialGradient id="path2019_1_" cx="74.7256" cy="873.3528" r="18.3599" gradientTransform="matrix(1.0561 0 0 0.6368 34.7946 -466.0137)" gradientUnits="userSpaceOnUse">
		<stop  offset="0" style="stop-color:#E3B36A"/>
		<stop  offset="1" style="stop-color:#E3B36A;stop-opacity:0"/>
	</radialGradient>
	
		<path id="path2019" sodipodi:type="arc" sodipodi:cx="66.015625" sodipodi:cy="302.75281" sodipodi:rx="18.359375" sodipodi:ry="16.015625" sodipodi:start="0" sodipodi:end="6.2801146" opacity="0.5" fill="url(#path2019_1_)" enable-background="new    " d="
		M133.103,90.137c0,6.457-8.683,11.691-19.392,11.691c-10.709-0.001-19.39-5.235-19.389-11.692c0-6.456,8.682-11.69,19.391-11.69
		c10.687,0.002,19.356,5.214,19.39,11.656l-19.391,0.035H133.103z"/>
	
		<radialGradient id="path2935_1_" cx="2531.7168" cy="5595.2734" r="26.4317" gradientTransform="matrix(0.1449 -0.0568 0.0122 0.07 -385.7259 -115.0184)" gradientUnits="userSpaceOnUse">
		<stop  offset="0" style="stop-color:#FFFFFF"/>
		<stop  offset="1" style="stop-color:#FFFFFF;stop-opacity:0"/>
	</radialGradient>
	
		<path id="path2935" sodipodi:type="arc" sodipodi:cx="-520.71429" sodipodi:cy="-2546.9236" sodipodi:rx="26.428572" sodipodi:ry="22.142857" sodipodi:start="0" sodipodi:end="6.2801146" fill="url(#path2935_1_)" d="
		M53.269,131.35c0.18,1.021-1.39,2.521-3.505,3.352c-2.114,0.828-3.975,0.674-4.154-0.349c-0.179-1.021,1.39-2.521,3.505-3.351
		c2.11-0.827,3.968-0.675,4.153,0.342l-3.829,1.507L53.269,131.35z"/>
	
		<linearGradient id="path2945_1_" gradientUnits="userSpaceOnUse" x1="1563.4756" y1="2297.637" x2="1765.9576" y2="2233.4995" gradientTransform="matrix(0.2264 0 0.038 0.2208 -425.1216 -387.3572)">
		<stop  offset="0" style="stop-color:#999999"/>
		<stop  offset="0.5" style="stop-color:#FFFFFF;stop-opacity:0.498"/>
		<stop  offset="1" style="stop-color:#999999"/>
	</linearGradient>
	<path id="path2945" sodipodi:nodetypes="ccsssscsccsssc" fill="url(#path2945_1_)" d="M28.38,89.738
		c-6.181,1.816-16.235,8.657-16.754,22.435c0.335,9.762,7.547,22.021,22.095,25.045c15.033,3.125,27.96-8.671,25.55-22.688
		c-1.063-6.181,1.055-5.489-2.354-10.342c-0.536-0.763-3.173-9.173-4.529-11.563c-0.497-0.878-0.254,0.83-0.609,1.346
		c-0.607,0.312-1.202-0.031-1.693-0.436C46.527,90.604,38.673,87.44,28.38,89.738z M32.422,97.63
		c9.819,0,18.567,4.247,20.134,13.354c1.567,9.107-6.697,18.522-16.686,15.874c-11.512-3.052-11.468-10.361-11.604-11.616
		C23.216,105.616,22.603,97.63,32.422,97.63z"/>
	
		<radialGradient id="path2931_1_" cx="-854.5259" cy="415.8391" r="31.1155" fx="-852.0541" fy="403.2038" gradientTransform="matrix(-0.8806 -1.4631 1.2303 -0.7405 -1208.6412 -832.4541)" gradientUnits="userSpaceOnUse">
		<stop  offset="0" style="stop-color:#E6E6E6"/>
		<stop  offset="0.5" style="stop-color:#E6E6E6"/>
		<stop  offset="0.75" style="stop-color:#E6E6E6"/>
		<stop  offset="1" style="stop-color:#E6E6E6;stop-opacity:0"/>
	</radialGradient>
	<path id="path2931" sodipodi:nodetypes="ccccccsccsssc" fill="url(#path2931_1_)" stroke="#DADADA" stroke-width="0.0687" d="
		M37.071,94.609c-13.381,0.362-24.785,11.39-21.991,24.935c5.105,20.806,25.145,18.613,38.552,29.792
		c13.02,13.395,18.979,25.687,18.979,25.687l4.152,2.486c-5.132-21.781-10.584-43.486-16.105-65.174
		C57.224,98.692,52.4,94.876,38.37,94.609C37.932,94.601,37.502,94.597,37.071,94.609z M39.245,101.514
		c9.735,0,17.526,5.646,18.378,14.606c0.853,8.96-6.369,16.241-16.104,16.241s-16.294-6.476-17.146-15.436
		C23.521,107.968,29.51,101.514,39.245,101.514z"/>
	
		<radialGradient id="path2048_1_" cx="2531.7168" cy="5595.2578" r="26.4297" gradientTransform="matrix(0.1449 -0.0568 0.0122 0.07 -405.889 -151.3123)" gradientUnits="userSpaceOnUse">
		<stop  offset="0" style="stop-color:#FFFFFF"/>
		<stop  offset="1" style="stop-color:#FFFFFF;stop-opacity:0"/>
	</radialGradient>
	
		<path id="path2048" sodipodi:type="arc" sodipodi:cx="-520.71429" sodipodi:cy="-2546.9236" sodipodi:rx="26.428572" sodipodi:ry="22.142857" sodipodi:start="0" sodipodi:end="6.2801146" fill="url(#path2048_1_)" d="
		M33.106,95.057c0.18,1.021-1.39,2.521-3.504,3.352c-2.115,0.828-3.976,0.673-4.155-0.35c-0.179-1.021,1.39-2.521,3.505-3.351
		c2.11-0.827,3.968-0.674,4.153,0.343l-3.828,1.506L33.106,95.057z"/>
	
		<linearGradient id="rect2941_1_" gradientUnits="userSpaceOnUse" x1="329.4014" y1="707.0403" x2="333.9187" y2="707.0403" gradientTransform="matrix(0.73 0 0.1771 0.7091 -298.0027 -361.0419)">
		<stop  offset="0" style="stop-color:#E6E6E6"/>
		<stop  offset="1" style="stop-color:#E6E6E6;stop-opacity:0"/>
	</linearGradient>
	<path id="rect2941" sodipodi:nodetypes="csccc" fill="url(#rect2941_1_)" d="M57.021,102.717c0,0,2.907,3.243,3.096,3.427
		c13.379,13.058,18.68,71.78,18.68,71.78l-2.289-0.604L57.021,102.717z"/>
	
		<linearGradient id="rect2986_1_" gradientUnits="userSpaceOnUse" x1="939.1064" y1="-540.5154" x2="951.4656" y2="-540.7693" gradientTransform="matrix(0.4698 0.5587 -0.117 0.7205 -447.1387 -32.8381)">
		<stop  offset="0" style="stop-color:#E6E6E6"/>
		<stop  offset="1" style="stop-color:#E6E6E6;stop-opacity:0"/>
	</linearGradient>
	<path id="rect2986" sodipodi:nodetypes="czcccc" fill="url(#rect2986_1_)" d="M53.658,98.595c0,0,1.503,0.866,3.185,2.672
		c1.633,1.753,4.249,5.259,4.249,5.259l1.911,2.933l-6.93-7.83L53.658,98.595z"/>
	<path id="path3033" fill="#E6E6E6" d="M39.823,141.316c4.443,1.881,8.871,4.017,12.803,7.237
		c13.632,13.661,20.154,26.199,20.154,26.199l4.266,2.536c-3.313-12.012-6.731-23.997-10.19-35.974L39.823,141.316L39.823,141.316z"
		/>
</g>
</svg>
