<?xml version="1.0" encoding="utf-8"?>
<!-- Generator: Adobe Illustrator 15.0.2, SVG Export Plug-In . SVG Version: 6.00 Build 0)  -->
<!DOCTYPE svg PUBLIC "-//W3C//DTD SVG 1.1//EN" "http://www.w3.org/Graphics/SVG/1.1/DTD/svg11.dtd">
<svg version="1.1" id="Layer_1" xmlns:svg="http://www.w3.org/2000/svg"
	 xmlns="http://www.w3.org/2000/svg" xmlns:xlink="http://www.w3.org/1999/xlink" x="0px" y="0px" width="508px" height="506px"
	 viewBox="0 0 508 506" enable-background="new 0 0 508 506" xml:space="preserve">
<linearGradient id="SVGID_1_" gradientUnits="userSpaceOnUse" x1="1286.2803" y1="-1509.5986" x2="1287.6171" y2="-1609.9589" gradientTransform="matrix(0.251 0 0 -0.251 -84.8716 94.3882)">
	<stop  offset="0" style="stop-color:#838383"/>
	<stop  offset="1" style="stop-color:#838383;stop-opacity:0"/>
</linearGradient>
<path fill="url(#SVGID_1_)" d="M39.414,472.871c0.044,10.549,0.458,22.243,13.001,23.235h368.407
	c4.688,0,15.928-10.119,15.75-20.457L39.414,472.871z"/>
<path fill="#A3A3A3" d="M45.607,5.81c-3.963,2.506-6.365,6.867-6.365,11.556v454.247c0,3.626,1.44,7.104,4.004,9.668
	c2.564,2.564,6.042,4.005,9.668,4.005h368.406c4.688,0,9.05-2.402,11.556-6.365L45.607,5.81z"/>
<path fill="#838383" d="M439.242,128.792c0-5.439-2.161-10.656-6.007-14.502L324.397,5.452c-3.847-3.846-9.063-6.007-14.502-6.007
	H57.162c-3.626,0-7.104,1.44-9.668,4.005c-2.564,2.564-4.004,6.042-4.004,9.668v454.248c0,3.626,1.44,7.104,4.004,9.668
	c2.564,2.563,6.042,4.004,9.668,4.004h368.407c3.626,0,7.104-1.44,9.668-4.004c2.564-2.564,4.005-6.042,4.005-9.668V128.792z"/>
<radialGradient id="SVGID_2_" cx="1264.2236" cy="-1614.3506" r="806.3005" gradientTransform="matrix(2.067607e-07 -0.2226 -0.4585 -4.264895e-07 -313.3338 758.9847)" gradientUnits="userSpaceOnUse">
	<stop  offset="0" style="stop-color:#BCBCBC"/>
	<stop  offset="1" style="stop-color:#FFFFFF"/>
</radialGradient>
<path fill="url(#SVGID_2_)" d="M435.824,136.973c0-5.439-2.161-10.656-6.007-14.502c-3.847-3.846-9.063-6.007-14.503-6.007h-83.867
	c-5.663,0-10.254-4.591-10.254-10.254V23.372c0-5.439-2.162-10.656-6.008-14.502c-3.846-3.847-9.062-6.007-14.502-6.007H57.162
	c-2.719,0-5.328,1.081-7.251,3.004c-1.923,1.923-3.003,4.531-3.003,7.251v454.248c0,2.719,1.081,5.327,3.003,7.25
	c1.923,1.924,4.532,3.004,7.251,3.004h368.407c2.72,0,5.328-1.08,7.251-3.004c1.924-1.923,3.004-4.531,3.004-7.25V136.973z"/>
<linearGradient id="SVGID_3_" gradientUnits="userSpaceOnUse" x1="1382.9629" y1="-1583.3003" x2="1382.9628" y2="-170.8394" gradientTransform="matrix(0.2412 0 0 -0.2412 -92.1669 88.9346)">
	<stop  offset="0" style="stop-color:#E2E2E2"/>
	<stop  offset="1" style="stop-color:#FFFFFF"/>
</linearGradient>
<path fill="url(#SVGID_3_)" d="M428.987,130.136H53.744V457.11c0,3.626,1.44,7.104,4.005,9.668c2.564,2.563,6.042,4.005,9.668,4.005
	h347.897c3.627,0,7.104-1.441,9.668-4.005c2.564-2.564,4.005-6.042,4.005-9.668V130.136z"/>
<linearGradient id="SVGID_4_" gradientUnits="userSpaceOnUse" x1="1885.0723" y1="55.9229" x2="1934.1932" y2="105.9697" gradientTransform="matrix(0.2412 0 0 -0.2412 -92.1669 88.9346)">
	<stop  offset="0" style="stop-color:#FFFFFF;stop-opacity:0.902"/>
	<stop  offset="1" style="stop-color:#838383"/>
</linearGradient>
<path fill="url(#SVGID_4_)" d="M324.611,10.499v95.71c0,1.813,0.72,3.552,2.002,4.834s3.021,2.002,4.834,2.002h95.71L324.611,10.499
	z"/>
<radialGradient id="SVGID_5_" cx="639.4727" cy="-383.0869" r="379.7628" gradientTransform="matrix(-0.2519 -0.2627 -0.1426 0.1367 475.0028 322.9351)" gradientUnits="userSpaceOnUse">
	<stop  offset="0" style="stop-color:#9E9E9E;stop-opacity:0.5882"/>
	<stop  offset="1" style="stop-color:#9E9E9E;stop-opacity:0"/>
</radialGradient>
<path fill="url(#SVGID_5_)" d="M415.311,116.382h-83.878c-5.664,0-10.256-4.592-10.256-10.256V23.279
	c0-5.44-2.161-10.657-6.007-14.504c-3.848-3.847-9.064-6.008-14.505-6.008H109.969l4.243,303.61l321.611,11.313V136.894
	c0-5.44-2.161-10.657-6.008-14.504C425.969,118.543,420.751,116.382,415.311,116.382z"/>
<path display="none" fill="#FFFF00" d="M454.953-395.961L341.685-509.23c-4.003-4.002-9.433-6.251-15.093-6.251H63.568
	c-7.858,0-14.229,6.371-14.229,14.229V-28.51c0,7.859,6.371,14.229,14.229,14.229h383.407c7.858,0,14.229-6.371,14.229-14.229
	v-352.358C461.204-386.529,458.956-391.958,454.953-395.961z"/>
<g>
	
		<path id="path3116" sodipodi:cx="34.285713" sodipodi:end="6.2801146" sodipodi:cy="193.07646" sodipodi:type="arc" sodipodi:rx="11.428572" sodipodi:ry="12.142858" sodipodi:start="0" fill="#999999" d="
		M343.355,404.649c0.003,26.303-33.038,47.631-73.802,47.632c-40.764,0.003-73.813-21.322-73.816-47.623
		c-0.004-26.301,33.04-47.631,73.801-47.634c40.679-0.004,73.689,21.229,73.816,47.476l-73.809,0.149H343.355L343.355,404.649z"/>
	<g id="g2813" transform="matrix(0.210418,0,0,0.210418,87.78764,47.56252)">
		<g id="g2836">
			<path id="path2790" sodipodi:nodetypes="csccssccccsc" fill="#CCCCCC" d="M861.165,495.897
				c-350.832,0-635.565,146.632-635.565,327.341c0,26.159,6.026,51.618,17.297,76.014l242.609,772.866
				c26.417,130.154,183.993,230.257,374.276,230.257c57.698,0,112.388-9.199,161.309-25.651
				c112.337-37.764,194.377-113.725,212.923-204.262h0.348l252.088-783.33h-2.594c8.461-21.282,12.874-43.327,12.874-65.894
				C1496.721,642.536,1211.987,495.897,861.165,495.897z"/>
			<path id="path2808" sodipodi:nodetypes="ccc" fill="#CCCCCC" stroke="#DADADA" stroke-width="2.5392" d="M1483.327,891.503
				l5.615-23.245l4.451-26.719"/>
		</g>
	</g>
	
		<path id="path2760" sodipodi:r2="372.15213" sodipodi:cx="-1262.8571" sodipodi:sides="3" sodipodi:r1="364.45938" inkscape:randomized="0" sodipodi:cy="-176.20924" inkscape:flatsided="false" sodipodi:arg2="0.0005425717" inkscape:rounded="0.45913031" sodipodi:type="star" sodipodi:arg1="2.0619237" fill="#FFFFFF" d="
		M210.541,273.044c86.443,24.488,190.487-5.275,187.257-54.191c-3.291-49.85-106.161-77.178-194.311-52.259
		c-86.486,24.45-85.923,83.498,2.109,106.588c89.729,23.53,189.446-6.476,189.488-56.355
		c0.041-48.938-104.564-78.223-189.368-52.396C119.282,190.755,122.436,248.087,210.541,273.044z"/>
	
		<linearGradient id="rect3076_1_" gradientUnits="userSpaceOnUse" x1="3549.9629" y1="-2936.5742" x2="3925.5095" y2="-2936.5742" gradientTransform="matrix(0.2104 0 0 -0.2104 -607.4725 -278.1832)">
		<stop  offset="0" style="stop-color:#999999"/>
		<stop  offset="1" style="stop-color:#999999;stop-opacity:0"/>
	</linearGradient>
	<path id="rect3076" sodipodi:nodetypes="ccccscc" fill="url(#rect3076_1_)" d="M139.44,237.44c0,0,10.249,19.205,34.262,33.711
		c40.169,16.46,43.103,14.366,43.103,14.366l18.237,156.387c0,0-14.565-5.414-25.066-12.738
		c-10.5-7.323-18.038-22.629-18.038-22.629L139.44,237.44z"/>
	
		<radialGradient id="rect3168_1_" cx="1783.7588" cy="4291.0332" r="277.0665" fx="1778.5062" fy="4054.1631" gradientTransform="matrix(0.3328 -5.784441e-04 0.0016 0.363 -326.8343 -1215.2617)" gradientUnits="userSpaceOnUse">
		<stop  offset="0" style="stop-color:#FFFFFF"/>
		<stop  offset="1" style="stop-color:#FFFFFF;stop-opacity:0"/>
	</radialGradient>
	<path id="rect3168" sodipodi:nodetypes="ccccccc" fill="url(#rect3168_1_)" d="M190.965,425.882l78.663,19.589l92.655-20.695
		l2.625-137.604c0,0-63.214,5.479-99.051,5.721c-38.46,0-82.761-6.824-82.761-6.824L190.965,425.882z"/>
	
		<radialGradient id="path3181_1_" cx="-4258.5283" cy="14639.2383" r="233.7352" fx="-4291.7373" fy="14407.874" gradientTransform="matrix(-0.2623 0.008 0.0072 0.0498 -947.7534 -413.0851)" gradientUnits="userSpaceOnUse">
		<stop  offset="0" style="stop-color:#FFFFFF"/>
		<stop  offset="1" style="stop-color:#FFFFFF;stop-opacity:0"/>
	</radialGradient>
	<path id="path3181" sodipodi:nodetypes="csscs" fill="url(#path3181_1_)" d="M262.673,312.596
		c-27.152,0-49.183-15.595-49.183-34.813c0-19.218,22.847-41.401,49.183-34.816l95.05,23.763
		C324.887,282.776,304.949,307.085,262.673,312.596z"/>
	
		<linearGradient id="path2819_1_" gradientUnits="userSpaceOnUse" x1="4668.1143" y1="-2390.4189" x2="4137.2974" y2="-2361.5886" gradientTransform="matrix(0.2104 0 0 -0.2104 -596.3505 -261.0485)">
		<stop  offset="0" style="stop-color:#999999"/>
		<stop  offset="1" style="stop-color:#999999;stop-opacity:0"/>
	</linearGradient>
	<path id="path2819" sodipodi:nodetypes="ccscc" fill="url(#path2819_1_)" d="M330.051,197.073
		c-56.415-4.42-170.725,9.857-174.393,36.342c10.19,21.116,61.035,43.819,115.564,43.819c55.317,0,119.754-29.845,115.061-50.814
		C386.019,232.271,385.139,203.151,330.051,197.073z"/>
	
		<path id="path3231" sodipodi:cx="-257.14285" sodipodi:end="6.2801146" sodipodi:cy="-2513.3521" sodipodi:type="arc" sodipodi:rx="64.285713" sodipodi:ry="45.714287" sodipodi:start="0" fill="#FFFFFF" d="
		M305.224,284.412c0,2.136-12.619,3.868-28.185,3.868s-28.184-1.732-28.179-3.868c0-2.136,12.617-3.866,28.183-3.866
		c15.531,0,28.136,1.723,28.181,3.855l-28.184,0.012L305.224,284.412L305.224,284.412z"/>
	
		<path id="rect3233" sodipodi:nodetypes="ccccc" fill="#FFFFFF" stroke="#FFFFFF" stroke-width="2.9458" stroke-dasharray="0.2946,0.2946" d="
		M258.882,300.012h37.881l-16.052,127.405l-17.043-5.518L258.882,300.012z"/>
	
		<path id="path3244" sodipodi:cx="-257.14285" sodipodi:end="6.2801146" sodipodi:cy="-2513.3521" sodipodi:type="arc" sodipodi:rx="64.285713" sodipodi:ry="45.714287" sodipodi:start="0" fill="#FFFFFF" d="
		M278.414,158.018c0,0.932-6.804,1.686-15.197,1.686c-8.396,0-15.196-0.756-15.196-1.686c0-0.932,6.801-1.688,15.2-1.686
		c8.373,0,15.168,0.75,15.193,1.68l-15.197,0.005H278.414z"/>
	
		<linearGradient id="path2050_1_" gradientUnits="userSpaceOnUse" x1="-4351.519" y1="-2577.293" x2="-4561.9331" y2="-2459.1697" gradientTransform="matrix(-0.2104 0 0 -0.2104 -746.507 -262.2516)">
		<stop  offset="0" style="stop-color:#999999"/>
		<stop  offset="1" style="stop-color:#999999;stop-opacity:0"/>
	</linearGradient>
	<path id="path2050" sodipodi:nodetypes="cscscc" fill="url(#path2050_1_)" d="M245.287,162.813
		c48.639,0,113.83,32.401,131.355,58.229c2.408,3.545,3.915,6.967,4.356,10.165c-10.189,21.11-61.034,43.813-115.564,43.813
		c-55.314,0-116.99-31.506-112.296-52.468C160.583,194.141,205.124,189.89,245.287,162.813z"/>
	<g id="g2015" transform="matrix(0.729978,0,0,0.729978,9.950581,-110.6643)">
		<path id="path2012" sodipodi:nodetypes="ccscc" fill="#BE8124" d="M358.37,440.577c-60.93,0-102.571,18.739-135.967,48.343
			c19.169,21.631,73.25-21.886,134.213-21.886c63.322,0,123.718,43.315,140.954,20.374
			C459.808,453.443,421.768,440.577,358.37,440.577z"/>
		<path id="path1965" sodipodi:nodetypes="ccscc" fill="#28170B" d="M357.087,446.905c-59.273,0-99.083,19.519-129.437,47.066
			c26.771,19.513,67.294,32.371,126.598,32.371c61.592,0,109.852-12.515,138.301-35.338
			C457.808,459.229,413.971,446.905,357.087,446.905z"/>
	</g>
	
		<radialGradient id="path2019_1_" cx="219.5449" cy="-618.4644" r="33.7524" gradientTransform="matrix(1.0561 0 0 -0.6368 21.9575 -157.5454)" gradientUnits="userSpaceOnUse">
		<stop  offset="0" style="stop-color:#E3B36A"/>
		<stop  offset="1" style="stop-color:#E3B36A;stop-opacity:0"/>
	</radialGradient>
	
		<path id="path2019" sodipodi:cx="66.015625" sodipodi:end="6.2801146" sodipodi:cy="302.75281" sodipodi:type="arc" sodipodi:rx="18.359375" sodipodi:ry="16.015625" sodipodi:start="0" opacity="0.5" fill="url(#path2019_1_)" enable-background="new    " d="
		M289.466,236.293c0,11.87-15.962,21.492-35.649,21.492c-19.688-0.001-35.646-9.624-35.644-21.494
		c0-11.869,15.961-21.492,35.647-21.492c19.647,0.005,35.585,9.586,35.646,21.428l-35.647,0.065H289.466z"/>
	
		<radialGradient id="path2935_1_" cx="3764.0674" cy="-9387.8691" r="48.6221" gradientTransform="matrix(0.1449 -0.0568 -0.0122 -0.07 -524.3906 -128.5382)" gradientUnits="userSpaceOnUse">
		<stop  offset="0" style="stop-color:#FFFFFF"/>
		<stop  offset="1" style="stop-color:#FFFFFF;stop-opacity:0"/>
	</radialGradient>
	
		<path id="path2935" sodipodi:cx="-520.71429" sodipodi:end="6.2801146" sodipodi:cy="-2546.9236" sodipodi:type="arc" sodipodi:rx="26.428572" sodipodi:ry="22.142857" sodipodi:start="0" fill="url(#path2935_1_)" d="
		M142.701,312.058c0.332,1.879-2.555,4.635-6.443,6.163c-3.887,1.523-7.308,1.239-7.637-0.642c-0.329-1.878,2.555-4.635,6.444-6.16
		c3.879-1.52,7.294-1.241,7.635,0.628l-7.04,2.771L142.701,312.058z"/>
	
		<linearGradient id="path2945_1_" gradientUnits="userSpaceOnUse" x1="2247.4434" y1="-2718.5996" x2="2619.6829" y2="-2600.6904" gradientTransform="matrix(0.2264 0 -0.038 -0.2208 -537.6472 -309.145)">
		<stop  offset="0" style="stop-color:#999999"/>
		<stop  offset="0.5" style="stop-color:#FFFFFF;stop-opacity:0.498"/>
		<stop  offset="1" style="stop-color:#999999"/>
	</linearGradient>
	<path id="path2945" sodipodi:nodetypes="ccsssscsccsssc" fill="url(#path2945_1_)" d="M96.945,235.559
		c-11.361,3.339-29.846,15.915-30.8,41.246c0.616,17.945,13.874,40.481,40.62,46.04c27.636,5.747,51.401-15.939,46.97-41.709
		c-1.954-11.362,1.939-10.091-4.328-19.013c-0.985-1.401-5.833-16.863-8.326-21.256c-0.914-1.614-0.467,1.526-1.12,2.474
		c-1.115,0.574-2.209-0.057-3.112-0.801C130.307,237.151,115.869,231.334,96.945,235.559z M104.376,250.067
		c18.052,0,34.133,7.808,37.015,24.549c2.88,16.744-12.312,34.052-30.675,29.182c-21.165-5.608-21.083-19.044-21.333-21.351
		C87.452,264.75,86.326,250.067,104.376,250.067z"/>
	
		<radialGradient id="path2931_1_" cx="-1181.5747" cy="58.0889" r="57.201" fx="-1177.0306" fy="34.8608" gradientTransform="matrix(-0.8806 -1.4631 -1.2303 0.7405 -822.297 -1499.2014)" gradientUnits="userSpaceOnUse">
		<stop  offset="0" style="stop-color:#E6E6E6"/>
		<stop  offset="0.5" style="stop-color:#E6E6E6"/>
		<stop  offset="0.75" style="stop-color:#E6E6E6"/>
		<stop  offset="1" style="stop-color:#E6E6E6;stop-opacity:0"/>
	</radialGradient>
	<path id="path2931" sodipodi:nodetypes="ccccccsccsssc" fill="url(#path2931_1_)" stroke="#DADADA" stroke-width="0.0687" d="
		M112.923,244.513c-24.599,0.667-45.563,20.939-40.427,45.841c9.385,38.25,46.226,34.219,70.873,54.771
		c23.936,24.623,34.891,47.222,34.891,47.222l7.633,4.57c-9.435-40.042-19.458-79.944-29.607-119.814
		c-6.313-25.082-15.182-32.096-40.974-32.589C114.506,244.499,113.715,244.492,112.923,244.513z M116.92,257.208
		c17.896,0,32.219,10.382,33.785,26.853c1.568,16.473-11.708,29.855-29.605,29.855c-17.896,0-29.955-11.904-31.521-28.377
		C88.013,269.073,99.022,257.208,116.92,257.208z"/>
	
		<radialGradient id="path2048_1_" cx="3689.1299" cy="-8892.3564" r="48.6098" gradientTransform="matrix(0.1449 -0.0568 -0.0122 -0.07 -544.5536 -164.8322)" gradientUnits="userSpaceOnUse">
		<stop  offset="0" style="stop-color:#FFFFFF"/>
		<stop  offset="1" style="stop-color:#FFFFFF;stop-opacity:0"/>
	</radialGradient>
	
		<path id="path2048" sodipodi:cx="-520.71429" sodipodi:end="6.2801146" sodipodi:cy="-2546.9236" sodipodi:type="arc" sodipodi:rx="26.428572" sodipodi:ry="22.142857" sodipodi:start="0" fill="url(#path2048_1_)" d="
		M105.634,245.338c0.332,1.877-2.555,4.635-6.441,6.163c-3.889,1.521-7.31,1.236-7.639-0.646c-0.329-1.875,2.555-4.633,6.444-6.159
		c3.879-1.521,7.294-1.239,7.635,0.63l-7.038,2.768L105.634,245.338z"/>
	
		<linearGradient id="rect2941_1_" gradientUnits="userSpaceOnUse" x1="471.5898" y1="-481.0386" x2="479.8937" y2="-481.0386" gradientTransform="matrix(0.73 0 -0.1771 -0.7091 -260.2631 -12.5557)">
		<stop  offset="0" style="stop-color:#E6E6E6"/>
		<stop  offset="1" style="stop-color:#E6E6E6;stop-opacity:0"/>
	</linearGradient>
	<path id="rect2941" sodipodi:nodetypes="csccc" fill="url(#rect2941_1_)" d="M149.599,259.42c0,0,5.345,5.961,5.692,6.3
		c24.596,24.006,34.339,131.959,34.339,131.959l-4.208-1.11L149.599,259.42z"/>
	
		<linearGradient id="rect2986_1_" gradientUnits="userSpaceOnUse" x1="1314.2881" y1="1219.5791" x2="1337.009" y2="1220.0459" gradientTransform="matrix(0.4698 0.5587 0.117 -0.7205 -610.0423 403.2502)">
		<stop  offset="0" style="stop-color:#E6E6E6"/>
		<stop  offset="1" style="stop-color:#E6E6E6;stop-opacity:0"/>
	</linearGradient>
	<path id="rect2986" sodipodi:nodetypes="czcccc" fill="url(#rect2986_1_)" d="M143.417,251.842c0,0,2.763,1.593,5.854,4.911
		c3.002,3.223,7.812,9.668,7.812,9.668l3.513,5.394l-12.739-14.395L143.417,251.842z"/>
	<path id="path3033" fill="#E6E6E6" d="M117.983,330.379c8.167,3.457,16.307,7.387,23.536,13.305
		c25.061,25.113,37.05,48.163,37.05,48.163l7.843,4.664c-6.091-22.084-12.375-44.116-18.733-66.135L117.983,330.379L117.983,330.379
		z"/>
</g>
</svg>
