<?xml version="1.0" encoding="utf-8"?>
<!-- Generator: Adobe Illustrator 15.0.0, SVG Export Plug-In . SVG Version: 6.00 Build 0)  -->
<!DOCTYPE svg PUBLIC "-//W3C//DTD SVG 1.1//EN" "http://www.w3.org/Graphics/SVG/1.1/DTD/svg11.dtd">
<svg version="1.1"
	 id="svg2054" inkscape:export-filename="/Users/pipo/Desktop/tasse.png" sodipodi:version="0.32" inkscape:export-xdpi="90" inkscape:version="0.44" inkscape:export-ydpi="90" sodipodi:docname="tasse petite.svg" sodipodi:docbase="/Users/pipo/Desktop" xmlns:sodipodi="http://sodipodi.sourceforge.net/DTD/sodipodi-0.dtd" xmlns:inkscape="http://www.inkscape.org/namespaces/inkscape" xmlns:svg="http://www.w3.org/2000/svg" xmlns:dc="http://purl.org/dc/elements/1.1/" xmlns:rdf="http://www.w3.org/1999/02/22-rdf-syntax-ns#" xmlns:cc="http://web.resource.org/cc/"
	 xmlns="http://www.w3.org/2000/svg" xmlns:xlink="http://www.w3.org/1999/xlink" x="0px" y="0px" width="215px" height="215px"
	 viewBox="0.233 8.322 215 215" enable-background="new 0.233 8.322 215 215" xml:space="preserve">
<sodipodi:namedview  width="216.47px" id="base" pagecolor="#ffffff" bordercolor="#666666" inkscape:window-height="852" inkscape:document-units="px" inkscape:window-x="29" inkscape:pageopacity="0.0" inkscape:pageshadow="2" guidetolerance="10" borderopacity="1.0" gridtolerance="10000" inkscape:cx="277.04038" objecttolerance="10" inkscape:zoom="2.5600001" inkscape:current-layer="layer1" inkscape:window-width="1440" inkscape:window-y="22" inkscape:cy="109.36552">
	</sodipodi:namedview>
<g>
	
		<path id="path3116" sodipodi:cx="34.285713" sodipodi:type="arc" sodipodi:cy="193.07646" sodipodi:start="0" sodipodi:rx="11.428572" sodipodi:ry="12.142858" sodipodi:end="6.2801146" fill="#999999" d="
		M175.353,170.239c0.002,16.341-20.524,29.589-45.847,29.59c-25.323,0.002-45.853-13.247-45.854-29.584
		c-0.002-16.337,20.524-29.589,45.846-29.591c25.269-0.001,45.776,13.188,45.854,29.493l-45.851,0.092H175.353L175.353,170.239z"/>
	<g id="g2813" transform="matrix(0.210418,0,0,0.210418,87.78764,47.56252)">
		<g id="g2836">
			<path id="path2790" sodipodi:nodetypes="csccssccccsc" fill="#CCCCCC" d="M196.607-163.137
				c-217.937,0-394.813,91.088-394.813,203.346c0,16.251,3.741,32.065,10.742,47.218l150.711,480.106
				c16.408,80.857,114.3,143.037,232.501,143.037c35.843,0,69.815-5.713,100.205-15.933
				c69.783-23.461,120.751-70.646,132.27-126.891h0.214L585.036,81.141h-1.61c5.258-13.218,7.997-26.914,7.997-40.932
				C591.417-72.042,414.542-163.137,196.607-163.137z"/>
			<path id="path2808" sodipodi:nodetypes="ccc" fill="#CCCCCC" stroke="#DADADA" stroke-width="2.5392" d="M583.096,82.614
				l3.485-14.436l2.766-16.601"/>
		</g>
	</g>
	
		<path id="path2760" sodipodi:cx="-1262.8571" sodipodi:type="star" sodipodi:cy="-176.20924" sodipodi:sides="3" sodipodi:r1="364.45938" sodipodi:r2="372.15213" inkscape:flatsided="false" sodipodi:arg1="2.0619237" inkscape:rounded="0.45913031" sodipodi:arg2="0.0005425717" inkscape:randomized="0" fill="#FFFFFF" d="
		M92.848,88.486c53.699,15.212,118.331-3.276,116.324-33.665c-2.044-30.966-65.947-47.942-120.706-32.463
		C34.74,37.546,35.09,74.226,89.775,88.571c55.739,14.617,117.685-4.022,117.71-35.008c0.026-30.4-64.955-48.592-117.636-32.548
		C36.157,37.367,38.116,72.982,92.848,88.486z"/>
	
		<linearGradient id="rect3076_1_" gradientUnits="userSpaceOnUse" x1="3876.3213" y1="5179.9951" x2="4109.6084" y2="5179.9951" gradientTransform="matrix(0.2104 0 0 0.2104 -766.8987 -959.9967)">
		<stop  offset="0" style="stop-color:#999999"/>
		<stop  offset="1" style="stop-color:#999999;stop-opacity:0"/>
	</linearGradient>
	<path id="rect3076" sodipodi:nodetypes="ccccscc" fill="url(#rect3076_1_)" d="M48.679,66.368c0,0,6.367,11.93,21.284,20.941
		c24.954,10.226,26.776,8.925,26.776,8.925l11.329,97.147c0,0-9.048-3.362-15.571-7.914c-6.522-4.549-11.206-14.057-11.206-14.057
		L48.679,66.368z"/>
	
		<radialGradient id="rect3168_1_" cx="1740.6445" cy="-4715.6123" r="172.1153" fx="1737.3816" fy="-4862.7573" gradientTransform="matrix(0.3328 -5.784441e-04 -0.0016 -0.363 -454.7706 -1579.8423)" gradientUnits="userSpaceOnUse">
		<stop  offset="0" style="stop-color:#FFFFFF"/>
		<stop  offset="1" style="stop-color:#FFFFFF;stop-opacity:0"/>
	</radialGradient>
	<path id="rect3168" sodipodi:nodetypes="ccccccc" fill="url(#rect3168_1_)" d="M80.687,183.429l48.866,12.168l57.558-12.855
		l1.631-85.481c0,0-39.27,3.404-61.53,3.554c-23.893,0-51.412-4.24-51.412-4.24L80.687,183.429z"/>
	
		<radialGradient id="path3181_1_" cx="-4567.3203" cy="-21674.5332" r="145.2004" fx="-4587.9502" fy="-21818.2598" gradientTransform="matrix(-0.2623 0.008 -0.0072 -0.0498 -1221.384 -948.8778)" gradientUnits="userSpaceOnUse">
		<stop  offset="0" style="stop-color:#FFFFFF"/>
		<stop  offset="1" style="stop-color:#FFFFFF;stop-opacity:0"/>
	</radialGradient>
	<path id="path3181" sodipodi:nodetypes="csscs" fill="url(#path3181_1_)" d="M125.232,113.055
		c-16.868,0-30.553-9.686-30.553-21.626c0-11.938,14.191-25.72,30.553-21.628l59.045,14.761
		C163.88,94.531,151.494,109.632,125.232,113.055z"/>
	
		<linearGradient id="path2819_1_" gradientUnits="userSpaceOnUse" x1="4550.8936" y1="4809.875" x2="4221.1489" y2="4791.9658" gradientTransform="matrix(0.2104 0 0 0.2104 -755.7771 -942.8619)">
		<stop  offset="0" style="stop-color:#999999"/>
		<stop  offset="1" style="stop-color:#999999;stop-opacity:0"/>
	</linearGradient>
	<path id="path2819" sodipodi:nodetypes="ccscc" fill="url(#path2819_1_)" d="M167.087,41.292
		C132.042,38.546,61.032,47.416,58.754,63.87c6.33,13.115,37.916,27.22,71.789,27.22c34.362,0,74.392-18.54,71.476-31.567
		C201.854,63.157,201.308,45.068,167.087,41.292z"/>
	
		<path id="path3231" sodipodi:cx="-257.14285" sodipodi:type="arc" sodipodi:cy="-2513.3521" sodipodi:start="0" sodipodi:rx="64.285713" sodipodi:ry="45.714287" sodipodi:end="6.2801146" fill="#FFFFFF" d="
		M151.664,95.547c0,1.327-7.839,2.403-17.508,2.403s-17.507-1.076-17.505-2.403c0-1.327,7.838-2.402,17.507-2.402
		c9.648,0,17.479,1.07,17.506,2.396l-17.507,0.008L151.664,95.547L151.664,95.547z"/>
	
		<path id="rect3233" sodipodi:nodetypes="ccccc" fill="#FFFFFF" stroke="#FFFFFF" stroke-width="2.9458" stroke-dasharray="0.2946,0.2946" d="
		M122.877,105.238h23.531l-9.972,79.145l-10.587-3.427L122.877,105.238z"/>
	
		<path id="path3244" sodipodi:cx="-257.14285" sodipodi:type="arc" sodipodi:cy="-2513.3521" sodipodi:start="0" sodipodi:rx="64.285713" sodipodi:ry="45.714287" sodipodi:end="6.2801146" fill="#FFFFFF" d="
		M135.011,17.031c0,0.579-4.227,1.047-9.44,1.047c-5.215,0-9.44-0.469-9.44-1.047c0-0.579,4.224-1.048,9.441-1.047
		c5.202,0,9.424,0.466,9.439,1.044l-9.44,0.003H135.011z"/>
	
		<linearGradient id="path2050_1_" gradientUnits="userSpaceOnUse" x1="-5124.6274" y1="4928.124" x2="-5255.3374" y2="4854.7456" gradientTransform="matrix(-0.2104 0 0 0.2104 -1011.1477 -944.0651)">
		<stop  offset="0" style="stop-color:#999999"/>
		<stop  offset="1" style="stop-color:#999999;stop-opacity:0"/>
	</linearGradient>
	<path id="path2050" sodipodi:nodetypes="cscscc" fill="url(#path2050_1_)" d="M114.432,20.01c30.215,0,70.713,20.128,81.599,36.172
		c1.495,2.203,2.431,4.328,2.705,6.314c-6.33,13.113-37.914,27.218-71.788,27.218c-34.362,0-72.675-19.573-69.759-32.593
		C61.813,39.47,89.482,36.83,114.432,20.01z"/>
	<g id="g2015" transform="matrix(0.729978,0,0,0.729978,9.950581,-110.6643)">
		<path id="path2012" sodipodi:nodetypes="ccscc" fill="#BE8124" d="M165.481,219.972c-37.849,0-63.717,11.641-84.463,30.032
			c11.908,13.437,45.503-13.595,83.374-13.595c39.335,0,76.855,26.907,87.562,12.656
			C228.495,227.965,204.864,219.972,165.481,219.972z"/>
		<path id="path1965" sodipodi:nodetypes="ccscc" fill="#28170B" d="M164.684,223.903c-36.82,0-61.551,12.126-80.406,29.238
			c16.629,12.122,41.803,20.109,78.643,20.109c38.262,0,68.24-7.775,85.913-21.953C227.252,231.559,200.022,223.903,164.684,223.903
			z"/>
	</g>
	
		<radialGradient id="path2019_1_" cx="43.3174" cy="1791.8137" r="20.9673" gradientTransform="matrix(1.0561 0 0 0.6368 73.9844 -1075.3711)" gradientUnits="userSpaceOnUse">
		<stop  offset="0" style="stop-color:#E3B36A"/>
		<stop  offset="1" style="stop-color:#E3B36A;stop-opacity:0"/>
	</radialGradient>
	
		<path id="path2019" sodipodi:cx="66.015625" sodipodi:type="arc" sodipodi:cy="302.75281" sodipodi:start="0" sodipodi:rx="18.359375" sodipodi:ry="16.015625" sodipodi:end="6.2801146" opacity="0.5" fill="url(#path2019_1_)" enable-background="new    " d="
		M141.876,65.656c0,7.374-9.916,13.352-22.146,13.352c-12.229-0.001-22.144-5.979-22.142-13.353c0-7.373,9.915-13.351,22.144-13.351
		c12.204,0.004,22.105,5.956,22.144,13.312l-22.145,0.04H141.876z"/>
	
		<radialGradient id="path2935_1_" cx="3896.041" cy="15465.2861" r="30.2152" gradientTransform="matrix(0.1449 -0.0568 0.0122 0.07 -706.9466 -746.8418)" gradientUnits="userSpaceOnUse">
		<stop  offset="0" style="stop-color:#FFFFFF"/>
		<stop  offset="1" style="stop-color:#FFFFFF;stop-opacity:0"/>
	</radialGradient>
	
		<path id="path2935" sodipodi:cx="-520.71429" sodipodi:type="arc" sodipodi:cy="-2546.9236" sodipodi:start="0" sodipodi:rx="26.428572" sodipodi:ry="22.142857" sodipodi:end="6.2801146" fill="url(#path2935_1_)" d="
		M50.705,112.721c0.206,1.167-1.587,2.879-4.002,3.829c-2.415,0.946-4.54,0.77-4.744-0.4c-0.204-1.165,1.587-2.878,4.003-3.826
		c2.41-0.945,4.531-0.771,4.743,0.39l-4.373,1.721L50.705,112.721z"/>
	
		<linearGradient id="path2945_1_" gradientUnits="userSpaceOnUse" x1="2357.4893" y1="4965.7129" x2="2588.7249" y2="4892.4678" gradientTransform="matrix(0.2264 0 0.038 0.2208 -714.106 -996.7142)">
		<stop  offset="0" style="stop-color:#999999"/>
		<stop  offset="0.5" style="stop-color:#FFFFFF;stop-opacity:0.498"/>
		<stop  offset="1" style="stop-color:#999999"/>
	</linearGradient>
	<path id="path2945" sodipodi:nodetypes="ccsssscsccsssc" fill="url(#path2945_1_)" d="M22.282,65.199
		c-7.059,2.074-18.541,9.887-19.133,25.623c0.382,11.148,8.619,25.147,25.233,28.602c17.167,3.568,31.931-9.903,29.178-25.91
		c-1.214-7.061,1.205-6.269-2.688-11.813c-0.612-0.871-3.623-10.476-5.172-13.203c-0.567-1.003-0.291,0.948-0.696,1.537
		c-0.693,0.357-1.373-0.036-1.933-0.498C43.006,66.189,34.036,62.575,22.282,65.199z M26.897,74.213
		c11.214,0,21.204,4.85,22.994,15.25c1.79,10.401-7.648,21.153-19.056,18.128c-13.147-3.485-13.097-11.831-13.252-13.264
		C16.384,83.333,15.685,74.213,26.897,74.213z"/>
	
		<radialGradient id="path2931_1_" cx="-1658.5435" cy="429.3069" r="35.5354" fx="-1655.7206" fy="414.8768" gradientTransform="matrix(-0.8806 -1.4631 1.2303 -0.7405 -1935.4805 -2020.5142)" gradientUnits="userSpaceOnUse">
		<stop  offset="0" style="stop-color:#E6E6E6"/>
		<stop  offset="0.5" style="stop-color:#E6E6E6"/>
		<stop  offset="0.75" style="stop-color:#E6E6E6"/>
		<stop  offset="1" style="stop-color:#E6E6E6;stop-opacity:0"/>
	</radialGradient>
	<path id="path2931" sodipodi:nodetypes="ccccccsccsssc" fill="url(#path2931_1_)" stroke="#DADADA" stroke-width="0.0687" d="
		M32.207,70.762C16.926,71.176,3.902,83.771,7.093,99.24c5.83,23.76,28.716,21.256,44.026,34.023
		c14.869,15.297,21.674,29.334,21.674,29.334l4.742,2.84c-5.861-24.875-12.087-49.662-18.392-74.43
		c-3.921-15.582-9.431-19.939-25.453-20.245C33.19,70.753,32.699,70.749,32.207,70.762z M34.69,78.648
		c11.117,0,20.015,6.448,20.988,16.681c0.974,10.232-7.274,18.545-18.391,18.545s-18.608-7.396-19.581-17.628
		C16.732,86.019,23.572,78.648,34.69,78.648z"/>
	
		<radialGradient id="path2048_1_" cx="3883.3457" cy="15381.3486" r="30.2056" gradientTransform="matrix(0.1449 -0.0568 0.0122 0.07 -727.1097 -783.1357)" gradientUnits="userSpaceOnUse">
		<stop  offset="0" style="stop-color:#FFFFFF"/>
		<stop  offset="1" style="stop-color:#FFFFFF;stop-opacity:0"/>
	</radialGradient>
	
		<path id="path2048" sodipodi:cx="-520.71429" sodipodi:type="arc" sodipodi:cy="-2546.9236" sodipodi:start="0" sodipodi:rx="26.428572" sodipodi:ry="22.142857" sodipodi:end="6.2801146" fill="url(#path2048_1_)" d="
		M27.679,71.274c0.206,1.167-1.587,2.879-4.001,3.83c-2.416,0.943-4.541,0.769-4.745-0.401c-0.204-1.166,1.587-2.878,4.003-3.827
		c2.41-0.944,4.531-0.77,4.743,0.392l-4.372,1.72L27.679,71.274z"/>
	
		<linearGradient id="rect2941_1_" gradientUnits="userSpaceOnUse" x1="249.1562" y1="1541.9045" x2="254.3157" y2="1541.9045" gradientTransform="matrix(0.73 0 0.1771 0.7091 -387.7971 -970.3988)">
		<stop  offset="0" style="stop-color:#E6E6E6"/>
		<stop  offset="1" style="stop-color:#E6E6E6;stop-opacity:0"/>
	</linearGradient>
	<path id="rect2941" sodipodi:nodetypes="csccc" fill="url(#rect2941_1_)" d="M54.99,80.022c0,0,3.32,3.704,3.536,3.913
		c15.279,14.914,21.333,81.974,21.333,81.974l-2.614-0.69L54.99,80.022z"/>
	
		<linearGradient id="rect2986_1_" gradientUnits="userSpaceOnUse" x1="1385.2842" y1="-379.0237" x2="1399.3984" y2="-379.3136" gradientTransform="matrix(0.4698 0.5587 -0.117 0.7205 -639.8503 -421.2104)">
		<stop  offset="0" style="stop-color:#E6E6E6"/>
		<stop  offset="1" style="stop-color:#E6E6E6;stop-opacity:0"/>
	</linearGradient>
	<path id="rect2986" sodipodi:nodetypes="czcccc" fill="url(#rect2986_1_)" d="M51.15,75.315c0,0,1.716,0.989,3.637,3.051
		c1.865,2.002,4.852,6.005,4.852,6.005l2.183,3.352l-7.914-8.942L51.15,75.315z"/>
	<path id="path3033" fill="#E6E6E6" d="M35.35,124.102c5.074,2.15,10.13,4.59,14.621,8.266c15.568,15.601,23.016,29.92,23.016,29.92
		l4.872,2.896c-3.784-13.72-7.687-27.404-11.637-41.084L35.35,124.102L35.35,124.102z"/>
</g>
<g>
	<path fill="#DD4814" d="M101.836,170.741c0,27.382-22.2,49.58-49.582,49.58c-27.384,0-49.582-22.198-49.582-49.58
		c0-27.386,22.198-49.584,49.582-49.584C79.638,121.157,101.836,143.356,101.836,170.741z"/>
	<path fill="#FFFFFF" d="M18.538,164.121c-3.656,0-6.619,2.963-6.619,6.619c0,3.654,2.963,6.616,6.619,6.616
		c3.655,0,6.62-2.962,6.62-6.616C25.157,167.082,22.193,164.121,18.538,164.121z M65.802,194.207
		c-3.165,1.826-4.25,5.876-2.421,9.041c1.828,3.165,5.874,4.248,9.041,2.422c3.165-1.827,4.25-5.875,2.422-9.042
		C73.016,193.464,68.968,192.379,65.802,194.207z M32.916,170.738c0-6.54,3.252-12.319,8.225-15.815l-4.841-8.106
		c-5.792,3.868-10.103,9.785-11.892,16.718c2.091,1.703,3.427,4.299,3.427,7.208c0,2.907-1.335,5.503-3.429,7.209
		c1.791,6.93,6.101,12.847,11.893,16.717l4.842-8.108C36.168,183.063,32.916,177.283,32.916,170.738z M52.254,151.404
		c10.103,0,18.388,7.743,19.256,17.62l9.434-0.138c-0.464-7.291-3.649-13.839-8.543-18.652c-2.518,0.951-5.425,0.807-7.938-0.644
		c-2.517-1.456-4.095-3.905-4.528-6.564c-2.445-0.677-5.02-1.045-7.681-1.045c-4.578,0-8.904,1.075-12.746,2.979l4.598,8.24
		C46.584,152.05,49.343,151.404,52.254,151.404z M52.254,190.077c-2.911,0-5.67-0.647-8.146-1.802l-4.6,8.244
		c3.842,1.903,8.167,2.979,12.746,2.979c2.661,0,5.236-0.368,7.683-1.045c0.432-2.66,2.011-5.11,4.528-6.565
		c2.513-1.45,5.42-1.595,7.938-0.645c4.895-4.812,8.079-11.359,8.543-18.652l-9.434-0.138
		C70.642,182.333,62.355,190.077,52.254,190.077z M65.801,147.272c3.166,1.828,7.214,0.744,9.04-2.42
		c1.828-3.166,0.745-7.212-2.421-9.042c-3.166-1.828-7.213-0.744-9.041,2.423C61.552,141.396,62.637,145.446,65.801,147.272z"/>
</g>
</svg>
