<?xml version="1.0" encoding="utf-8"?>
<!-- Generator: Adobe Illustrator 15.0.1, SVG Export Plug-In . SVG Version: 6.00 Build 0)  -->
<!DOCTYPE svg PUBLIC "-//W3C//DTD SVG 1.1//EN" "http://www.w3.org/Graphics/SVG/1.1/DTD/svg11.dtd">
<svg version="1.1"
	 id="svg2054" inkscape:export-filename="/Users/pipo/Desktop/tasse.png" sodipodi:version="0.32" sodipodi:docname="tasse petite.svg" inkscape:version="0.44" inkscape:export-xdpi="90" inkscape:export-ydpi="90" sodipodi:docbase="/Users/pipo/Desktop" xmlns:rdf="http://www.w3.org/1999/02/22-rdf-syntax-ns#" xmlns:cc="http://web.resource.org/cc/" xmlns:inkscape="http://www.inkscape.org/namespaces/inkscape" xmlns:dc="http://purl.org/dc/elements/1.1/" xmlns:svg="http://www.w3.org/2000/svg" xmlns:sodipodi="http://sodipodi.sourceforge.net/DTD/sodipodi-0.dtd"
	 xmlns="http://www.w3.org/2000/svg" xmlns:xlink="http://www.w3.org/1999/xlink" x="0px" y="0px" width="500px" height="200px"
	 viewBox="-142.267 15.822 500 200" enable-background="new -142.267 15.822 500 200" xml:space="preserve">
<sodipodi:namedview  width="216.47px" inkscape:cx="277.04038" id="base" inkscape:window-x="29" inkscape:pageopacity="0.0" inkscape:pageshadow="2" pagecolor="#ffffff" bordercolor="#666666" borderopacity="1.0" gridtolerance="10000" guidetolerance="10" objecttolerance="10" inkscape:zoom="2.5600001" inkscape:document-units="px" inkscape:current-layer="layer1" inkscape:window-width="1440" inkscape:window-height="852" inkscape:cy="109.36552" inkscape:window-y="22">
	</sodipodi:namedview>
<g>
	
		<path id="path3116" sodipodi:type="arc" sodipodi:cx="34.285713" sodipodi:cy="193.07646" sodipodi:rx="11.428572" sodipodi:start="0" sodipodi:ry="12.142858" sodipodi:end="6.2801146" fill="#999999" d="
		M22.451,166.662c0.002,14.309-17.972,25.908-40.146,25.91c-22.173,0.002-40.15-11.6-40.152-25.906s17.972-25.908,40.145-25.91
		c22.127-0.002,40.084,11.549,40.152,25.826l-40.148,0.08H22.451L22.451,166.662z"/>
	<g id="g2813" transform="matrix(0.210418,0,0,0.210418,87.78764,47.56252)">
		<g id="g2836">
			<path id="path2790" sodipodi:nodetypes="csccssccccsc" fill="#CCCCCC" d="M-502.748-87.348
				c-190.838,0-345.719,79.761-345.719,178.059c0,14.229,3.277,28.078,9.407,41.343l131.969,420.411
				c14.369,70.795,100.084,125.244,203.592,125.244c31.383,0,61.132-5.003,87.744-13.951
				c61.104-20.541,105.733-61.856,115.822-111.107h0.186l137.125-426.1h-1.411c4.604-11.575,7.003-23.567,7.003-35.838
				C-157.035-7.587-311.917-87.348-502.748-87.348z"/>
			<path id="path2808" sodipodi:nodetypes="ccc" fill="#CCCCCC" stroke="#DADADA" stroke-width="2.5392" d="M-164.322,127.839
				l3.054-12.642l2.423-14.536"/>
		</g>
	</g>
	
		<path id="path2760" sodipodi:type="star" sodipodi:cx="-1262.8571" sodipodi:cy="-176.20924" sodipodi:sides="3" sodipodi:r1="364.45938" sodipodi:r2="372.15213" sodipodi:arg1="2.0619237" inkscape:flatsided="false" sodipodi:arg2="0.0005425717" inkscape:rounded="0.45913031" inkscape:randomized="0" fill="#FFFFFF" d="
		M-49.794,95.075c47.021,13.32,103.616-2.869,101.859-29.479c-1.79-27.115-57.747-41.98-105.696-28.426
		c-47.045,13.299-46.739,45.418,1.147,57.979c48.808,12.799,103.05-3.521,103.073-30.654C50.611,37.874-6.29,21.945-52.419,35.993
		C-99.436,50.314-97.72,81.499-49.794,95.075z"/>
	
		<linearGradient id="rect3076_1_" gradientUnits="userSpaceOnUse" x1="2563.0811" y1="-3107.6238" x2="2767.3604" y2="-3107.6238" gradientTransform="matrix(0.2104 0 0 -0.2104 -627.7424 -522.5258)">
		<stop  offset="0" style="stop-color:#999999"/>
		<stop  offset="1" style="stop-color:#999999;stop-opacity:0"/>
	</linearGradient>
	<path id="rect3076" sodipodi:nodetypes="ccccscc" fill="url(#rect3076_1_)" d="M-88.47,75.708c0,0,5.575,10.445,18.637,18.336
		c21.85,8.955,23.446,7.816,23.446,7.816l9.92,85.067c0,0-7.923-2.945-13.635-6.93c-5.711-3.984-9.812-12.309-9.812-12.309
		L-88.47,75.708z"/>
	
		<radialGradient id="rect3168_1_" cx="956.3369" cy="4321.7812" r="150.7129" fx="953.4797" fy="4192.9336" gradientTransform="matrix(0.3328 -5.784441e-04 0.0016 0.363 -340.6404 -1436.0227)" gradientUnits="userSpaceOnUse">
		<stop  offset="0" style="stop-color:#FFFFFF"/>
		<stop  offset="1" style="stop-color:#FFFFFF;stop-opacity:0"/>
	</radialGradient>
	<path id="rect3168" sodipodi:nodetypes="ccccccc" fill="url(#rect3168_1_)" d="M-60.443,178.211l42.79,10.656l50.4-11.258
		l1.428-74.851c0,0-34.386,2.98-53.879,3.113c-20.921,0-45.019-3.713-45.019-3.713L-60.443,178.211z"/>
	
		<radialGradient id="path3181_1_" cx="-3300.8706" cy="15513.7451" r="127.1424" fx="-3318.9348" fy="15387.8926" gradientTransform="matrix(-0.2623 0.008 0.0072 0.0498 -992.4322 -646.2947)" gradientUnits="userSpaceOnUse">
		<stop  offset="0" style="stop-color:#FFFFFF"/>
		<stop  offset="1" style="stop-color:#FFFFFF;stop-opacity:0"/>
	</radialGradient>
	<path id="path3181" sodipodi:nodetypes="csscs" fill="url(#path3181_1_)" d="M-21.437,116.59c-14.77,0-26.753-8.483-26.753-18.938
		c0-10.453,12.427-22.52,26.753-18.938L30.266,91.64C12.405,100.368,1.559,113.592-21.437,116.59z"/>
	
		<linearGradient id="path2819_1_" gradientUnits="userSpaceOnUse" x1="3147.1934" y1="-2773.3933" x2="2858.4539" y2="-2757.7109" gradientTransform="matrix(0.2104 0 0 -0.2104 -616.6204 -505.391)">
		<stop  offset="0" style="stop-color:#999999"/>
		<stop  offset="1" style="stop-color:#999999;stop-opacity:0"/>
	</linearGradient>
	<path id="path2819" sodipodi:nodetypes="ccscc" fill="url(#path2819_1_)" d="M15.213,53.749
		c-30.688-2.404-92.867,5.363-94.862,19.77c5.543,11.486,33.2,23.836,62.862,23.836c30.09,0,65.141-16.234,62.588-27.641
		C45.657,72.896,45.178,57.056,15.213,53.749z"/>
	
		<path id="path3231" sodipodi:type="arc" sodipodi:cx="-257.14285" sodipodi:cy="-2513.3521" sodipodi:rx="64.285713" sodipodi:start="0" sodipodi:ry="45.714287" sodipodi:end="6.2801146" fill="#FFFFFF" d="
		M1.708,101.259c0,1.162-6.864,2.104-15.331,2.104s-15.33-0.941-15.328-2.104c0-1.162,6.863-2.104,15.33-2.104
		c8.448,0,15.305,0.938,15.329,2.098l-15.33,0.006H1.708L1.708,101.259z"/>
	
		<path id="rect3233" sodipodi:nodetypes="ccccc" fill="#FFFFFF" stroke="#FFFFFF" stroke-width="2.9458" stroke-dasharray="0.2946,0.2946" d="
		M-23.5,109.743h20.605l-8.731,69.304l-9.271-3.002L-23.5,109.743z"/>
	
		<path id="path3244" sodipodi:type="arc" sodipodi:cx="-257.14285" sodipodi:cy="-2513.3521" sodipodi:rx="64.285713" sodipodi:start="0" sodipodi:ry="45.714287" sodipodi:end="6.2801146" fill="#FFFFFF" d="
		M-12.875,32.505c0,0.508-3.701,0.918-8.267,0.918c-4.566,0-8.267-0.412-8.267-0.918s3.7-0.918,8.268-0.916
		c4.556,0,8.252,0.408,8.266,0.914l-8.267,0.002H-12.875z"/>
	
		<linearGradient id="path2050_1_" gradientUnits="userSpaceOnUse" x1="-3404.978" y1="-2877.656" x2="-3519.4346" y2="-2813.4021" gradientTransform="matrix(-0.2104 0 0 -0.2104 -788.7708 -506.5941)">
		<stop  offset="0" style="stop-color:#999999"/>
		<stop  offset="1" style="stop-color:#999999;stop-opacity:0"/>
	</linearGradient>
	<path id="path2050" sodipodi:nodetypes="cscscc" fill="url(#path2050_1_)" d="M-30.894,35.115
		c26.457,0,61.919,17.625,71.451,31.674c1.31,1.928,2.129,3.789,2.369,5.529C37.383,83.8,9.727,96.15-19.935,96.15
		c-30.089,0-63.638-17.137-61.084-28.539C-76.969,52.156-52.741,49.843-30.894,35.115z"/>
	<g id="g2015" transform="matrix(0.729978,0,0,0.729978,9.950581,-110.6643)">
		<path id="path2012" sodipodi:nodetypes="ccscc" fill="#BE8124" d="M-36.381,235.569c-33.143,0-55.794,10.194-73.96,26.298
			c10.427,11.765,39.845-11.906,73.006-11.906c34.444,0,67.298,23.561,76.673,11.082C18.798,242.569-1.896,235.569-36.381,235.569z"
			/>
		<path id="path1965" sodipodi:nodetypes="ccscc" fill="#28170B" d="M-37.08,239.013c-32.242,0-53.896,10.617-70.408,25.603
			c14.562,10.614,36.605,17.608,68.864,17.608c33.504,0,59.754-6.809,75.23-19.224C17.709,245.715-6.136,239.013-37.08,239.013z"/>
	</g>
	
		<radialGradient id="path2019_1_" cx="-68.3106" cy="-776.5857" r="18.3599" gradientTransform="matrix(1.0561 0 0 -0.6368 45.8896 -419.4463)" gradientUnits="userSpaceOnUse">
		<stop  offset="0" style="stop-color:#E3B36A"/>
		<stop  offset="1" style="stop-color:#E3B36A;stop-opacity:0"/>
	</radialGradient>
	
		<path id="path2019" sodipodi:type="arc" sodipodi:cx="66.015625" sodipodi:cy="302.75281" sodipodi:rx="18.359375" sodipodi:start="0" sodipodi:ry="16.015625" sodipodi:end="6.2801146" opacity="0.5" fill="url(#path2019_1_)" enable-background="new    " d="
		M-6.863,75.083c0,6.457-8.683,11.691-19.392,11.691s-19.39-5.234-19.389-11.691c0-6.457,8.682-11.691,19.391-11.691
		c10.687,0.004,19.356,5.215,19.39,11.656l-19.391,0.035H-6.863z"/>
	
		<radialGradient id="path2935_1_" cx="2409.4053" cy="-8924.5459" r="26.4458" gradientTransform="matrix(0.1449 -0.0568 -0.0122 -0.07 -548.5859 -370.0674)" gradientUnits="userSpaceOnUse">
		<stop  offset="0" style="stop-color:#FFFFFF"/>
		<stop  offset="1" style="stop-color:#FFFFFF;stop-opacity:0"/>
	</radialGradient>
	
		<path id="path2935" sodipodi:type="arc" sodipodi:cx="-520.71429" sodipodi:cy="-2546.9236" sodipodi:rx="26.428572" sodipodi:start="0" sodipodi:ry="22.142857" sodipodi:end="6.2801146" fill="url(#path2935_1_)" d="
		M-86.696,116.297c0.18,1.021-1.39,2.521-3.505,3.352c-2.114,0.828-3.975,0.674-4.154-0.35c-0.179-1.02,1.39-2.52,3.505-3.35
		c2.11-0.828,3.968-0.676,4.153,0.342l-3.829,1.506L-86.696,116.297z"/>
	
		<linearGradient id="path2945_1_" gradientUnits="userSpaceOnUse" x1="1419.8574" y1="-2983.804" x2="1622.3395" y2="-2919.6665" gradientTransform="matrix(0.2264 0 -0.038 -0.2208 -558.6456 -553.9152)">
		<stop  offset="0" style="stop-color:#999999"/>
		<stop  offset="0.5" style="stop-color:#FFFFFF;stop-opacity:0.498"/>
		<stop  offset="1" style="stop-color:#999999"/>
	</linearGradient>
	<path id="path2945" sodipodi:nodetypes="ccsssscsccsssc" fill="url(#path2945_1_)" d="M-111.585,74.685
		c-6.181,1.816-16.235,8.656-16.754,22.436c0.335,9.762,7.547,22.021,22.095,25.044c15.033,3.125,27.96-8.67,25.55-22.687
		c-1.063-6.182,1.055-5.49-2.354-10.344c-0.536-0.762-3.173-9.172-4.529-11.562c-0.497-0.877-0.254,0.83-0.609,1.346
		c-0.607,0.312-1.202-0.031-1.693-0.436C-93.438,75.55-101.292,72.386-111.585,74.685z M-107.543,82.577
		c9.819,0,18.567,4.246,20.134,13.354c1.567,9.107-6.697,18.522-16.686,15.874c-11.512-3.052-11.468-10.36-11.604-11.616
		C-116.75,90.564-117.362,82.577-107.543,82.577z"/>
	
		<radialGradient id="path2931_1_" cx="-1202.5161" cy="157.0266" r="31.1155" fx="-1200.0443" fy="144.3913" gradientTransform="matrix(-0.8806 -1.4631 -1.2303 0.7405 -950.2513 -1780.8586)" gradientUnits="userSpaceOnUse">
		<stop  offset="0" style="stop-color:#E6E6E6"/>
		<stop  offset="0.5" style="stop-color:#E6E6E6"/>
		<stop  offset="0.75" style="stop-color:#E6E6E6"/>
		<stop  offset="1" style="stop-color:#E6E6E6;stop-opacity:0"/>
	</radialGradient>
	<path id="path2931" sodipodi:nodetypes="ccccccsccsssc" fill="url(#path2931_1_)" stroke="#DADADA" stroke-width="0.0687" d="
		M-102.895,79.556c-13.381,0.361-24.785,11.391-21.991,24.936c5.105,20.806,25.145,18.612,38.552,29.792
		c13.02,13.395,18.979,25.686,18.979,25.686l4.152,2.486c-5.132-21.781-10.584-43.486-16.105-65.173
		c-3.434-13.645-8.258-17.459-22.288-17.727C-102.033,79.548-102.463,79.544-102.895,79.556z M-100.72,86.46
		c9.735,0,17.526,5.646,18.378,14.607c0.853,8.959-6.369,16.239-16.104,16.239s-16.294-6.476-17.146-15.435
		C-116.444,92.915-110.456,86.46-100.72,86.46z"/>
	
		<radialGradient id="path2048_1_" cx="2409.4092" cy="-8924.5303" r="26.4458" gradientTransform="matrix(0.1449 -0.0568 -0.0122 -0.07 -568.749 -406.3613)" gradientUnits="userSpaceOnUse">
		<stop  offset="0" style="stop-color:#FFFFFF"/>
		<stop  offset="1" style="stop-color:#FFFFFF;stop-opacity:0"/>
	</radialGradient>
	
		<path id="path2048" sodipodi:type="arc" sodipodi:cx="-520.71429" sodipodi:cy="-2546.9236" sodipodi:rx="26.428572" sodipodi:start="0" sodipodi:ry="22.142857" sodipodi:end="6.2801146" fill="url(#path2048_1_)" d="
		M-106.859,80.003c0.18,1.021-1.39,2.521-3.504,3.354c-2.115,0.826-3.976,0.672-4.155-0.352c-0.179-1.02,1.39-2.52,3.505-3.35
		c2.11-0.828,3.968-0.674,4.153,0.342l-3.828,1.506L-106.859,80.003z"/>
	
		<linearGradient id="rect2941_1_" gradientUnits="userSpaceOnUse" x1="120.2773" y1="-567.9036" x2="124.7956" y2="-567.9036" gradientTransform="matrix(0.73 0 -0.1771 -0.7091 -260.6678 -277.4332)">
		<stop  offset="0" style="stop-color:#E6E6E6"/>
		<stop  offset="1" style="stop-color:#E6E6E6;stop-opacity:0"/>
	</linearGradient>
	<path id="rect2941" sodipodi:nodetypes="csccc" fill="url(#rect2941_1_)" d="M-82.944,87.663c0,0,2.907,3.244,3.096,3.428
		c13.379,13.059,18.68,71.78,18.68,71.78l-2.289-0.605L-82.944,87.663z"/>
	
		<linearGradient id="rect2986_1_" gradientUnits="userSpaceOnUse" x1="921.124" y1="824.967" x2="933.482" y2="825.2209" gradientTransform="matrix(0.4698 0.5587 0.117 -0.7205 -611.9362 167.104)">
		<stop  offset="0" style="stop-color:#E6E6E6"/>
		<stop  offset="1" style="stop-color:#E6E6E6;stop-opacity:0"/>
	</linearGradient>
	<path id="rect2986" sodipodi:nodetypes="czcccc" fill="url(#rect2986_1_)" d="M-86.307,83.542c0,0,1.503,0.865,3.185,2.672
		c1.633,1.752,4.249,5.258,4.249,5.258l1.911,2.934l-6.93-7.83L-86.307,83.542z"/>
	<path id="path3033" fill="#E6E6E6" d="M-100.142,126.262c4.443,1.883,8.871,4.018,12.803,7.238
		c13.632,13.66,20.154,26.199,20.154,26.199l4.266,2.535c-3.313-12.012-6.731-23.996-10.19-35.975L-100.142,126.262
		L-100.142,126.262z"/>
</g>
<rect x="79.074" y="72.402" fill="none" width="261.865" height="100.54"/>
<text transform="matrix(1 0 0 1 79.0742 164.7004)" font-family="'MyriadPro-Semibold'" font-size="130">Dact</text>
</svg>
